<svg width="9" height="17" viewBox="0 0 9 17" fill="none" xmlns="http://www.w3.org/2000/svg">
<path d="M8.45335 0.00342691L6.34643 0C3.97939 0 2.4497 1.59094 2.4497 4.05335V5.92221H0.331292C0.148236 5.92221 0 6.07266 0 6.25822V8.966C0 9.15156 0.148405 9.30183 0.331292 9.30183H2.4497V16.1344C2.4497 16.32 2.59794 16.4702 2.78099 16.4702H5.54491C5.72797 16.4702 5.8762 16.3198 5.8762 16.1344V9.30183H8.35312C8.53617 9.30183 8.68441 9.15156 8.68441 8.966L8.68542 6.25822C8.68542 6.16912 8.65043 6.08379 8.5884 6.02074C8.52637 5.95768 8.44185 5.92221 8.35396 5.92221H5.8762V4.33795C5.8762 3.57649 6.0552 3.18994 7.03369 3.18994L8.45301 3.18943C8.6359 3.18943 8.78413 3.03898 8.78413 2.85359V0.339264C8.78413 0.15404 8.63606 0.0037696 8.45335 0.00342691Z" fill="#282929"/>
</svg>
