<svg width="16" height="16" viewBox="0 0 16 16" fill="none" xmlns="http://www.w3.org/2000/svg">
<path d="M11.7025 0.0408325H4.72522C2.35576 0.0408325 0.42804 1.96864 0.42804 4.33811V11.3154C0.42804 13.685 2.35576 15.6127 4.72522 15.6127H11.7025C14.0722 15.6127 15.9999 13.6849 15.9999 11.3154V4.33811C16 1.96864 14.0722 0.0408325 11.7025 0.0408325ZM14.6184 11.3154C14.6184 12.9232 13.3104 14.2311 11.7026 14.2311H4.72522C3.11758 14.2312 1.80965 12.9232 1.80965 11.3154V4.33811C1.80965 2.73046 3.11758 1.42244 4.72522 1.42244H11.7025C13.3103 1.42244 14.6183 2.73046 14.6183 4.33811L14.6184 11.3154Z" fill="#282929"/>
<path d="M8.21397 3.81448C6.00146 3.81448 4.2015 5.61444 4.2015 7.82695C4.2015 10.0394 6.00146 11.8392 8.21397 11.8392C10.4265 11.8392 12.2265 10.0394 12.2265 7.82695C12.2265 5.61444 10.4265 3.81448 8.21397 3.81448ZM8.21397 10.4575C6.76337 10.4575 5.58311 9.27746 5.58311 7.82686C5.58311 6.37617 6.76328 5.19599 8.21397 5.19599C9.66467 5.19599 10.8448 6.37617 10.8448 7.82686C10.8448 9.27746 9.66457 10.4575 8.21397 10.4575Z" fill="#282929"/>
<path d="M12.3947 2.64296C12.1285 2.64296 11.867 2.75073 11.6791 2.93955C11.4901 3.12745 11.3815 3.38903 11.3815 3.65614C11.3815 3.92242 11.4902 4.18392 11.6791 4.37274C11.867 4.56064 12.1285 4.66932 12.3947 4.66932C12.6618 4.66932 12.9225 4.56064 13.1113 4.37274C13.3001 4.18392 13.4079 3.92233 13.4079 3.65614C13.4079 3.38903 13.3001 3.12745 13.1113 2.93955C12.9234 2.75073 12.6618 2.64296 12.3947 2.64296Z" fill="#282929"/>
</svg>
